<svg xmlns="http://www.w3.org/2000/svg" width="48" height="48" viewBox="0 0 48 48">
  <g id="behance" transform="translate(-1183 -3912)">
    <circle id="Ellipse_11" data-name="Ellipse 11" cx="24" cy="24" r="24" transform="translate(1183 3912)" fill="#5d2c0c"/>
    <g id="_層_1-2" transform="translate(1197 3930)">
      <g id="Group_792" data-name="Group 792">
        <path id="Path_3911" data-name="Path 3911" d="M-.19-.024c1.959,0,3.917-.005,5.871.005A5.476,5.476,0,0,1,7.5.272,2.4,2.4,0,0,1,9.2,2.537,4.12,4.12,0,0,1,9.113,3.7,2.289,2.289,0,0,1,7.922,5.182c-.086.05-.172.1-.262.15-.005.005-.005.01-.01.02.192.08.389.155.575.246A2.545,2.545,0,0,1,9.548,7.046a3.568,3.568,0,0,1,.015,2.5,3.2,3.2,0,0,1-2.181,1.944,5.151,5.151,0,0,1-1.651.266c-1.979.005-3.953,0-5.931,0C-.19,11.756-.19-.024-.19-.024ZM2.43,9.752c.056.005.1.01.131.01.893,0,1.787.005,2.68-.005a3.824,3.824,0,0,0,.676-.07,1.338,1.338,0,0,0,1.2-1.127,2.668,2.668,0,0,0-.005-.8A1.34,1.34,0,0,0,5.958,6.585a3.941,3.941,0,0,0-.732-.075C4.353,6.5,3.475,6.5,2.6,6.5c-.056,0-.111.005-.172.01V9.752Zm.005-7.746V4.741h2.59a4.022,4.022,0,0,0,.49-.035,1.215,1.215,0,0,0,1.121-.982,2.343,2.343,0,0,0,.015-.651A1,1,0,0,0,6,2.2a2.465,2.465,0,0,0-.8-.185C4.313,1.985,3.424,2,2.541,1.99c-.03,0-.066.01-.106.015Z" transform="translate(0.2 0.025)" fill="#f9f5ef"/>
        <path id="Path_3912" data-name="Path 3912" d="M220.91,65.013h-6.179a1.8,1.8,0,0,0,1.328,2.01,2.583,2.583,0,0,0,1.969-.233,1.424,1.424,0,0,0,.616-.639.2.2,0,0,1,.126-.1c.656,0,1.307,0,1.969,0a.5.5,0,0,1,0,.087,3.7,3.7,0,0,1-3.387,2.655,5.523,5.523,0,0,1-2.145-.184,3.7,3.7,0,0,1-2.448-2.083,4.61,4.61,0,0,1,.252-4.457,4.067,4.067,0,0,1,3.266-1.918,4.331,4.331,0,0,1,2.569.494,3.843,3.843,0,0,1,1.918,2.64,11.766,11.766,0,0,1,.156,1.526.6.6,0,0,1-.01.208Zm-2.372-1.429a1.71,1.71,0,0,0-1.873-1.754,1.785,1.785,0,0,0-1.949,1.754Z" transform="translate(-200.926 -56.818)" fill="#f9f5ef"/>
        <path id="Path_3913" data-name="Path 3913" d="M255.211,13.7H250.4V12.6h4.811v1.1Z" transform="translate(-237.1 -11.988)" fill="#f9f5ef"/>
      </g>
    </g>
  </g>
</svg>
