<?xml version="1.0" encoding="utf-8"?>
<!-- Generator: Adobe Illustrator 24.3.0, SVG Export Plug-In . SVG Version: 6.00 Build 0)  -->
<svg version="1.1" id="圖層_1" xmlns="http://www.w3.org/2000/svg" xmlns:xlink="http://www.w3.org/1999/xlink" x="0px" y="0px"
	 viewBox="0 0 210 48" style="enable-background:new 0 0 210 48;" xml:space="preserve">
<style type="text/css">
	.st0{fill:url(#SVGID_1_);}
</style>
<g>
	<g>
		<path d="M17.8,29.3c4.5,0,8.2-3.7,8.2-8.2c0-4.5-3.7-8.2-8.2-8.2c-4.5,0-8.2,3.7-8.2,8.2C9.6,25.7,13.3,29.3,17.8,29.3z"/>
		<path d="M38.1,31.4c2.7-0.8,4.7-3.3,4.7-6.3c0-3.6-2.9-6.6-6.6-6.6c-3.6,0-6.6,2.9-6.6,6.6c0,3,2,5.5,4.7,6.3
			c-1.1,0.3-2.1,0.9-2.8,1.7l0,0l-4.8,5c-0.4-4.6-4.2-8.2-8.9-8.2c-4.9,0-8.9,4-8.9,8.9c0,4.9,4,8.9,8.9,8.9c2.6,0,5-1.2,6.7-3
			l5.5-5c0.9,2.6,3.3,4.5,6.2,4.5c3.6,0,6.6-2.9,6.6-6.6C42.7,34.7,40.8,32.2,38.1,31.4z M17.6,44.4c-3.1,0-5.6-2.5-5.6-5.6
			c0-3.1,2.5-5.6,5.6-5.6c3.1,0,5.6,2.5,5.6,5.6C23.2,41.9,20.7,44.4,17.6,44.4z M36.1,29.4c-2.4,0-4.3-1.9-4.3-4.3s1.9-4.3,4.3-4.3
			c2.4,0,4.3,1.9,4.3,4.3S38.5,29.4,36.1,29.4z"/>
	</g>
	<g>
		<linearGradient id="SVGID_1_" gradientUnits="userSpaceOnUse" x1="15.0988" y1="-0.262" x2="57.706" y2="75.2688">
			<stop  offset="0" style="stop-color:#FFF000"/>
			<stop  offset="1" style="stop-color:#E95504"/>
		</linearGradient>
		<path class="st0" d="M50.4,1.8C49,0.6,47.2,0,45.4,0c-0.4,0-0.9,0-1.3,0.1L6.4,9.4C2.7,10,0,13.3,0,17v15.3c0,3.9,2.9,7.2,6.7,7.7
			l1.7,0.4c-0.1-0.5-0.1-0.9-0.1-1.4c0-1.2,0.2-2.4,0.7-3.4l-3.2-0.4V14.2l37.6-6.5v32.5l-12.3-1.7l-5.9,5.4l19,4
			c0.3,0.1,0.7,0.1,1,0.1c1.9,0,3.7-0.7,5.1-1.9c1.7-1.5,2.7-3.6,2.7-5.8V7.7C53.1,5.5,52.1,3.3,50.4,1.8z"/>
	</g>
</g>
<g>
	<path d="M59.4,8h5.8c3.9,0,6.5,0.1,7.9,0.4c1.4,0.3,2.5,1.1,3.3,2.3c0.9,1.2,1.3,3.2,1.3,5.9c0,2.5-0.3,4.1-0.9,4.9
		c-0.6,0.8-1.8,1.4-3.6,1.5c1.6,0.4,2.7,0.9,3.3,1.6c0.6,0.7,0.9,1.3,1,1.9c0.1,0.6,0.2,2.1,0.2,4.7v8.3h-7.6V29.1
		c0-1.7-0.1-2.7-0.4-3.1c-0.3-0.4-1-0.6-2.1-0.6v14.2h-8.2V8z M67.6,13.4v7c0.9,0,1.6-0.1,1.9-0.4c0.4-0.3,0.6-1.1,0.6-2.5v-1.7
		c0-1-0.2-1.7-0.5-2C69.2,13.5,68.6,13.4,67.6,13.4z"/>
	<path d="M98.5,27.1H88.3v5.6c0,1.2,0.1,1.9,0.3,2.3c0.2,0.3,0.5,0.5,1,0.5c0.6,0,1-0.2,1.2-0.7c0.2-0.4,0.3-1.3,0.3-2.6v-3.4h7.5
		v1.9c0,1.6-0.1,2.8-0.3,3.7c-0.2,0.9-0.7,1.8-1.4,2.7c-0.7,1-1.7,1.7-2.8,2.2c-1.1,0.5-2.6,0.7-4.3,0.7c-1.7,0-3.1-0.2-4.4-0.7
		c-1.3-0.5-2.3-1.1-3-2c-0.7-0.8-1.2-1.8-1.5-2.8c-0.3-1-0.4-2.5-0.4-4.4v-7.5c0-2.3,0.3-4,0.9-5.3c0.6-1.3,1.6-2.3,3-3
		c1.4-0.7,3-1,4.8-1c2.2,0,4,0.4,5.5,1.3c1.4,0.8,2.4,1.9,3,3.3c0.6,1.4,0.9,3.3,0.9,5.8V27.1z M90.6,22.9V21c0-1.3-0.1-2.2-0.2-2.6
		c-0.1-0.4-0.4-0.6-0.9-0.6c-0.5,0-0.9,0.2-1,0.5c-0.1,0.3-0.2,1.2-0.2,2.7v1.9H90.6z"/>
	<path d="M108.1,23.7h-7.4V22c0-2,0.2-3.5,0.7-4.6c0.5-1.1,1.4-2,2.8-2.9c1.4-0.8,3.2-1.2,5.4-1.2c2.7,0,4.7,0.5,6,1.4
		c1.4,0.9,2.2,2.1,2.4,3.5c0.3,1.4,0.4,4.2,0.4,8.5v13h-7.7v-2.3c-0.5,0.9-1.1,1.6-1.9,2.1c-0.8,0.5-1.7,0.7-2.7,0.7
		c-1.4,0-2.6-0.4-3.8-1.2c-1.1-0.8-1.7-2.5-1.7-5.1v-2.1c0-1.9,0.3-3.3,0.9-4c0.6-0.7,2.1-1.5,4.5-2.5c2.6-1,4-1.7,4.1-2
		c0.2-0.4,0.3-1.1,0.3-2.1c0-1.4-0.1-2.2-0.3-2.6c-0.2-0.4-0.5-0.6-1-0.6c-0.5,0-0.9,0.2-1,0.5c-0.1,0.3-0.2,1.2-0.2,2.7V23.7z
		 M110.6,27.2c-1.3,0.9-2,1.7-2.2,2.3c-0.2,0.6-0.3,1.5-0.3,2.7c0,1.3,0.1,2.2,0.3,2.6c0.2,0.4,0.5,0.6,1,0.6c0.5,0,0.8-0.2,1-0.5
		c0.1-0.3,0.2-1.1,0.2-2.4V27.2z"/>
	<path d="M129.3,8v31.5h-8.1V8H129.3z"/>
	<path d="M148.9,8v6.3H144v25.2h-8.2V14.3h-4.9V8H148.9z"/>
	<path d="M158.6,8v4.1h-8.1V8H158.6z M158.6,13.7v25.8h-8.1V13.7H158.6z"/>
	<path d="M169.2,13.7l-0.1,2.5c0.6-1,1.3-1.7,2.2-2.2c0.8-0.5,1.8-0.7,2.9-0.7c2.1,0,3.8,1,5,2.9c0.7-1,1.4-1.7,2.2-2.2
		c0.8-0.5,1.8-0.7,2.8-0.7c1.3,0,2.4,0.3,3.3,1c0.9,0.6,1.4,1.4,1.7,2.4c0.2,0.9,0.4,2.5,0.4,4.6v18.4h-7.6V22.7
		c0-2.2-0.1-3.6-0.2-4.1c-0.2-0.5-0.5-0.8-1-0.8c-0.6,0-0.9,0.3-1.1,0.8c-0.2,0.5-0.2,1.9-0.2,4.1v16.8h-7.6V23.1
		c0-2.5-0.1-4.1-0.2-4.6c-0.1-0.5-0.5-0.8-1-0.8c-0.4,0-0.6,0.1-0.9,0.4c-0.2,0.3-0.4,0.6-0.4,1c0,0.4,0,1.2,0,2.4v17.9h-7.6V13.7
		H169.2z"/>
	<path d="M210,27.1h-10.2v5.6c0,1.2,0.1,1.9,0.3,2.3c0.2,0.3,0.5,0.5,1,0.5c0.6,0,1-0.2,1.2-0.7c0.2-0.4,0.3-1.3,0.3-2.6v-3.4h7.5
		v1.9c0,1.6-0.1,2.8-0.3,3.7c-0.2,0.9-0.7,1.8-1.4,2.7c-0.7,1-1.7,1.7-2.8,2.2c-1.1,0.5-2.6,0.7-4.3,0.7c-1.7,0-3.1-0.2-4.4-0.7
		c-1.3-0.5-2.3-1.1-3-2c-0.7-0.8-1.2-1.8-1.5-2.8c-0.3-1-0.4-2.5-0.4-4.4v-7.5c0-2.3,0.3-4,0.9-5.3c0.6-1.3,1.6-2.3,3-3
		c1.4-0.7,3-1,4.8-1c2.2,0,4,0.4,5.5,1.3c1.4,0.8,2.4,1.9,3,3.3c0.6,1.4,0.9,3.3,0.9,5.8V27.1z M202.1,22.9V21
		c0-1.3-0.1-2.2-0.2-2.6c-0.1-0.4-0.4-0.6-0.9-0.6c-0.5,0-0.9,0.2-1,0.5c-0.1,0.3-0.2,1.2-0.2,2.7v1.9H202.1z"/>
</g>
</svg>
