<svg xmlns="http://www.w3.org/2000/svg" width="48" height="48" viewBox="0 0 48 48">
  <g id="mail" transform="translate(-1124 -3912)">
    <circle id="Ellipse_10" data-name="Ellipse 10" cx="24" cy="24" r="24" transform="translate(1124 3912)" fill="#5d2c0c"/>
    <path id="envelope-solid" d="M1.5,64a1.5,1.5,0,0,0-.9,2.7l6.8,5.1a1,1,0,0,0,1.2,0l6.8-5.1a1.5,1.5,0,0,0-.9-2.7ZM0,67.5V74a2,2,0,0,0,2,2H14a2,2,0,0,0,2-2V67.5L9.2,72.6a2,2,0,0,1-2.4,0Z" transform="translate(1140 3866)" fill="#f9f5ef"/>
  </g>
</svg>
