<svg xmlns="http://www.w3.org/2000/svg" width="48" height="48" viewBox="0 0 48 48">
  <g id="linkedin" transform="translate(-1070 -3912)">
    <circle id="Ellipse_12" data-name="Ellipse 12" cx="24" cy="24" r="24" transform="translate(1070 3912)" fill="#5d2c0c"/>
    <g id="_層_1-2" transform="translate(1085 3927)">
      <g id="Group_793" data-name="Group 793">
        <path id="Path_3914" data-name="Path 3914" d="M83.4,77.149a2.993,2.993,0,0,1,1.5-1.193,4.944,4.944,0,0,1,3.636.091A3.175,3.175,0,0,1,90.2,77.9a6.523,6.523,0,0,1,.443,2.359c.03,1.981.031,3.963.039,5.945a.588.588,0,0,1-.675.66q-1.138,0-2.276,0a.558.558,0,0,1-.641-.636c0-1.64.011-3.281-.007-4.921a6.2,6.2,0,0,0-.16-1.354,1.522,1.522,0,0,0-1.44-1.244,1.676,1.676,0,0,0-1.736.976,3.532,3.532,0,0,0-.356,1.561q0,2.481,0,4.962a.574.574,0,0,1-.647.657q-1.107,0-2.215,0a.582.582,0,0,1-.653-.658V76.484a.567.567,0,0,1,.638-.643h2.276a.546.546,0,0,1,.6.594c0,.218,0,.436,0,.715Z" transform="translate(-72.684 -68.862)" fill="#f9f5ef"/>
        <path id="Path_3915" data-name="Path 3915" d="M7.391,83.834V79a.583.583,0,0,1,.662-.666c.738,0,1.476,0,2.213,0a.59.59,0,0,1,.636.6c0,.061,0,.123,0,.184v9.447c0,.586-.2.787-.787.787-.683,0-1.367,0-2.05,0a.6.6,0,0,1-.677-.68V83.834Z" transform="translate(-6.88 -71.354)" fill="#f9f5ef"/>
        <path id="Path_3916" data-name="Path 3916" d="M4.52,2.271A2.26,2.26,0,1,1,2.256,0,2.262,2.262,0,0,1,4.52,2.271Z" transform="translate(0)" fill="#f9f5ef"/>
      </g>
    </g>
  </g>
</svg>
